<svg width="35" height="46" viewBox="0 0 35 46" fill="none" xmlns="http://www.w3.org/2000/svg">
<path d="M24.0625 25.2791C22.9031 25.4673 21.8094 25.8018 20.7812 26.2409V10.4545H24.0625V25.2791ZM12.0312 42.8636C7.19688 42.8636 3.28125 39.1209 3.28125 34.5V8.36364C3.28125 5.47818 5.73125 3.13636 8.75 3.13636C11.7688 3.13636 14.2188 5.47818 14.2188 8.36364V30.3182C14.2188 31.4682 13.2344 32.4091 12.0312 32.4091C10.8281 32.4091 9.84375 31.4682 9.84375 30.3182V10.4545H6.5625V30.3182C6.5625 33.2036 9.0125 35.5455 12.0312 35.5455C12.4906 35.5455 12.9281 35.4827 13.3438 35.3782C13.8906 32.5764 15.3781 30.13 17.5 28.3109V8.36364C17.5 3.74273 13.5844 0 8.75 0C3.91562 0 0 3.74273 0 8.36364V34.5C0 40.8564 5.38125 46 12.0312 46C13.4094 46 14.7219 45.77 15.9469 45.3727C15.2469 44.5155 14.6562 43.5745 14.2188 42.5709C13.4969 42.7382 12.775 42.8636 12.0312 42.8636ZM28.4375 35.5455V29.2727H24.0625V35.5455H17.5V39.7273H24.0625V46H28.4375V39.7273H35V35.5455H28.4375Z" fill="#D3DBE2"/>
</svg>
