<svg width="57" height="57" viewBox="0 0 57 57" fill="none" xmlns="http://www.w3.org/2000/svg">
<path d="M56.7928 16.3088L49.0311 1.43789C48.7657 0.919783 48.224 0.600098 47.649 0.600098H10.1339C9.54788 0.600098 9.01716 0.919783 8.7518 1.43789L0.978993 16.3088C0.437218 17.345 1.18907 18.5796 2.36107 18.5796H4.80459V55.0458C4.80459 55.9056 5.50115 56.6001 6.36357 56.6001H51.3972C52.2596 56.6001 52.9562 55.9056 52.9562 55.0458V18.5796H55.3997C56.5828 18.5796 57.3346 17.345 56.7928 16.3088ZM33.6624 53.4914H24.1095V43.9119L28.8859 39.1497L33.6624 43.9119V53.4914ZM49.8382 53.4914H36.7803V43.2615C36.7803 42.8536 36.6145 42.4568 36.327 42.1592L29.9916 35.8426C29.3835 35.2363 28.3994 35.2363 27.7803 35.8426L21.4448 42.1592C21.1573 42.4458 20.9915 42.8426 20.9915 43.2615V53.4914H7.93361V18.5796H19.145C19.5541 18.5796 19.9522 18.4143 20.2507 18.1277L28.8859 9.50718L37.5322 18.1277C37.8197 18.4143 38.2177 18.5796 38.6379 18.5796H49.8493V53.4914H49.8382ZM39.2791 15.471L29.9916 6.21112C29.3835 5.60482 28.3994 5.60482 27.7803 6.21112L18.4927 15.471H4.93727L6.35251 12.7592H10.941C11.8034 12.7592 12.5 12.0647 12.5 11.2048C12.5 10.345 11.8034 9.65049 10.941 9.65049H7.97784L8.63018 8.3938H15.5627C16.4251 8.3938 17.1217 7.69931 17.1217 6.83947C17.1217 5.97963 16.4251 5.28514 15.5627 5.28514H10.2555L11.0737 3.71978H46.6981L52.8346 15.471H39.2791Z" fill="white"/>
</svg>
