<svg width="61" height="45" viewBox="0 0 61 45" fill="none" xmlns="http://www.w3.org/2000/svg">
<path d="M57.3214 14.5817C57.32 14.5803 57.3193 14.579 57.3187 14.5783C57.318 14.5776 57.316 14.5763 57.3153 14.5756L46.1641 3.42439C45.3766 2.6376 43.9662 1.7834 42.6967 1.73149L33.9686 0.734351L33.8351 0.725586C33.1697 0.728957 32.5265 0.838851 31.9204 1.04111C28.2042 0.652099 23.7599 2.56142 20.2285 6.09286C19.5502 6.7711 18.9219 7.49383 18.3603 8.24219C17.9133 8.83818 18.034 9.68362 18.6286 10.1306C18.8713 10.3133 19.1552 10.4003 19.437 10.4003C19.8469 10.4003 20.2514 10.2149 20.517 9.86161C21.0024 9.21438 21.5465 8.58805 22.1351 7.99948C24.0997 6.03488 26.4115 4.64536 28.5946 4.03319C28.248 4.79031 28.0646 5.62092 28.0768 6.48389L29.0834 15.3462C29.1218 16.2887 29.6025 17.3081 30.1695 18.0929C29.6477 18.5365 29.1029 18.939 28.5427 19.3078C28.093 18.4933 27.53 17.7349 26.8538 17.0586C24.9667 15.1709 22.4567 14.1306 19.7862 14.1299C19.7855 14.1299 19.7848 14.1299 19.7842 14.1299C19.259 14.1299 18.7432 14.1819 18.2342 14.2607C18.4001 13.7079 18.607 13.1476 18.8666 12.5901C19.1808 11.9152 18.8882 11.1136 18.2126 10.7987C17.5411 10.4852 16.7361 10.7765 16.4213 11.4527C15.8293 12.7249 15.4478 13.9863 15.2603 15.2154C14.3326 15.6873 13.4717 16.3015 12.7146 17.0586C10.2295 19.5437 9.25392 23.0765 10.0663 26.4502L8.90266 27.6145C8.6795 27.8377 8.54197 28.1316 8.51298 28.4451L8.2797 31.005L5.65708 31.3239C5.03076 31.3995 4.54129 31.8997 4.47792 32.5281L4.22374 35.0657L1.44606 35.392C0.78737 35.4689 0.283072 36.0136 0.256104 36.675L0.036316 41.9958C0.00732556 42.7003 0.525108 43.3078 1.22492 43.3907L6.63669 44.0325C6.68928 44.0386 6.74254 44.042 6.79513 44.042C7.15043 44.042 7.49427 43.9011 7.74844 43.6469L17.5337 33.8616C18.2895 34.0383 19.0527 34.1266 19.8105 34.1266C22.4115 34.1266 24.9451 33.1052 26.8531 31.1972C28.7422 29.3088 29.7818 26.7981 29.7818 24.1262C29.7818 23.3603 29.6861 22.61 29.5196 21.8812C30.3913 21.3459 31.228 20.7391 32.0195 20.0575L43.7491 31.7871C44.7382 32.7768 46.0427 33.3357 47.4228 33.3607C47.4559 33.3614 47.4889 33.362 47.5212 33.362C48.8831 33.362 50.1513 32.8409 51.1039 31.8876L59.2374 23.7541C60.213 22.7785 60.7368 21.4706 60.7112 20.0723C60.6856 18.6922 60.1267 17.3877 59.1376 16.3986L57.3214 14.5817ZM24.9465 29.2906C23.0008 31.2343 20.1671 31.9172 17.5492 31.0711C17.5249 31.063 17.5 31.0617 17.4757 31.0556C17.4279 31.0435 17.3807 31.032 17.3328 31.0253C17.293 31.0192 17.2532 31.0158 17.2135 31.0138C17.1663 31.0111 17.1191 31.0104 17.0719 31.0125C17.0321 31.0145 16.9937 31.0185 16.9546 31.0239C16.9067 31.0307 16.8602 31.0388 16.8137 31.0502C16.7766 31.0597 16.7409 31.0704 16.7045 31.0826C16.6586 31.0981 16.6134 31.1156 16.5689 31.1365C16.5332 31.1534 16.4995 31.1716 16.4651 31.1911C16.4253 31.2141 16.3862 31.2383 16.3485 31.266C16.3114 31.2923 16.277 31.3219 16.2426 31.3523C16.2231 31.3698 16.2008 31.3833 16.1819 31.4022L6.30499 41.2784L2.78299 40.8611L2.90367 37.9371L5.61528 37.6182C6.24431 37.5447 6.73647 37.0431 6.79985 36.4134L7.05402 33.8711L9.68608 33.5515C10.3171 33.4753 10.8086 32.9683 10.8666 32.3352L11.1545 29.176L12.5298 27.7999C12.548 27.7817 12.5615 27.7595 12.5784 27.7406C12.6114 27.7035 12.6431 27.6664 12.6721 27.626C12.6964 27.5916 12.7179 27.5559 12.7388 27.5201C12.7611 27.4817 12.7827 27.4426 12.8009 27.4022C12.8191 27.3624 12.8339 27.3226 12.8474 27.2821C12.8615 27.2403 12.8743 27.1992 12.8845 27.1561C12.8939 27.1149 12.9013 27.0738 12.9067 27.0313C12.9128 26.9875 12.9175 26.9437 12.9195 26.8992C12.9215 26.8554 12.9195 26.8122 12.9168 26.7684C12.9141 26.7266 12.9114 26.6848 12.9047 26.643C12.8973 26.5931 12.8851 26.5452 12.8716 26.496C12.8649 26.4718 12.8636 26.4475 12.8555 26.4239C11.9824 23.7851 12.6593 20.9279 14.6205 18.9653C15.3089 18.2769 16.1105 17.743 16.9836 17.3809C16.9903 17.3782 16.9971 17.3762 17.0031 17.3735C17.8735 17.0155 18.8133 16.8267 19.7828 16.8267H19.7842C21.7346 16.8274 23.5678 17.5865 24.9458 18.9653C25.4333 19.4527 25.8385 19.9995 26.1648 20.5854C25.8405 20.7209 25.5175 20.8389 25.1966 20.942C24.9883 20.46 24.691 20.0069 24.2972 19.6132C22.6259 17.9418 19.9082 17.9418 18.2376 19.6132C16.5662 21.2838 16.5662 24.0029 18.2376 25.6728C19.0729 26.5082 20.1698 26.9255 21.2674 26.9255C22.365 26.9255 23.4619 26.5082 24.2972 25.6728C24.8636 25.1072 25.233 24.4202 25.4151 23.6947C25.9443 23.5518 26.4769 23.3637 27.0102 23.1493C27.0534 23.4716 27.083 23.7966 27.083 24.1269C27.085 26.0774 26.3259 27.9112 24.9465 29.2906ZM21.7272 21.391C20.9856 21.3061 20.3242 21.8535 20.248 22.5938C20.1718 23.3341 20.7105 23.9968 21.4508 24.073C21.5978 24.0885 21.7515 24.0878 21.9011 24.0959C21.32 24.3474 20.6195 24.2395 20.1455 23.7655C19.5266 23.146 19.5266 22.1387 20.1455 21.5191C20.455 21.2097 20.8622 21.0553 21.2688 21.0553C21.6274 21.0553 21.9814 21.1827 22.2733 21.4227C22.0879 21.4193 21.9052 21.4092 21.7272 21.391ZM57.3315 21.8475L49.198 29.9816C48.2487 30.9309 46.6596 30.885 45.6558 29.8812L44.7887 29.0142L52.5824 21.2205C53.109 20.6946 53.109 19.8404 52.5824 19.3138C52.0559 18.7873 51.2024 18.7873 50.6758 19.3138L42.8821 27.1075L33.9436 18.1684C35.1774 16.7836 36.1867 15.2747 36.9148 13.7254C38.0205 13.7079 39.0567 13.2724 39.8388 12.4896C40.6384 11.69 41.0786 10.6275 41.0786 9.49687C41.0786 8.36624 40.6384 7.30371 39.8388 6.50479C38.1897 4.85571 35.5051 4.85436 33.8546 6.50479C32.2049 8.15455 32.2049 10.8392 33.854 12.4889C33.8546 12.4889 33.8546 12.4889 33.8546 12.4889C34.0009 12.6352 34.1594 12.7654 34.3219 12.8874C33.7569 14.0167 33.0139 15.1197 32.1226 16.1532C31.9157 15.7912 31.7795 15.4338 31.7768 15.2309L30.7722 6.38478C30.7769 5.58991 31.0844 4.84897 31.6419 4.29073C32.1995 3.73385 32.9411 3.42641 33.7346 3.42237L42.4466 4.41883L42.5801 4.42759C42.934 4.43299 43.7619 4.8375 44.2575 5.33304L54.4574 15.5329L52.9795 17.0115C52.453 17.538 52.453 18.3922 52.9795 18.9181C53.2431 19.1817 53.5877 19.3132 53.9328 19.3132C54.278 19.3132 54.6232 19.1817 54.8862 18.9181L56.3647 17.4402L57.2317 18.3073C57.7245 18.8001 58.003 19.4453 58.0151 20.1235C58.0279 20.7816 57.7845 21.3944 57.3315 21.8475ZM35.7619 8.41141C36.0613 8.11274 36.4537 7.96307 36.8467 7.96307C37.2398 7.96307 37.6335 8.11275 37.9322 8.41209C38.2227 8.70199 38.3819 9.08696 38.3819 9.49619C38.3819 9.85959 38.2504 10.1994 38.0198 10.4751C38.0448 10.3538 38.0724 10.2311 38.094 10.1104C38.2207 9.37619 37.7299 8.6784 36.9964 8.55097C36.2581 8.42759 35.5644 8.91571 35.437 9.64856C35.4221 9.73419 35.3938 9.8225 35.3763 9.9088C35.2327 9.39304 35.3567 8.81728 35.7619 8.41141Z" fill="#D3DBE2"/>
</svg>
