<svg width="55" height="30" viewBox="0 0 55 30" fill="none" xmlns="http://www.w3.org/2000/svg">
<path d="M50.4167 0H20.625C18.1042 0 16.0417 2.07692 16.0417 4.61538V25.3846C16.0417 27.9462 18.1042 30 20.625 30H50.4167C52.9604 30 55 27.9462 55 25.3846V4.61538C55 2.07692 52.9604 0 50.4167 0ZM50.4167 25.3846H20.625V8.46923L35.5208 16.1538L50.4167 8.46923V25.3846ZM35.5208 12.2538L20.625 4.61538H50.4167L35.5208 12.2538ZM11.4583 25.3846C11.4583 25.7769 11.5271 26.1462 11.5729 26.5385H2.29167C1.02667 26.5385 0 25.5 0 24.2308C0 22.9615 1.02667 21.9231 2.29167 21.9231H11.4583V25.3846ZM6.875 3.46154H11.5729C11.5271 3.85385 11.4583 4.22308 11.4583 4.61538V8.07692H6.875C5.61458 8.07692 4.58333 7.03846 4.58333 5.76923C4.58333 4.5 5.61458 3.46154 6.875 3.46154ZM2.29167 15C2.29167 13.7308 3.32292 12.6923 4.58333 12.6923H11.4583V17.3077H4.58333C3.32292 17.3077 2.29167 16.2692 2.29167 15Z" fill="#D3DBE2"/>
</svg>
