<svg width="50" height="46" viewBox="0 0 50 46" fill="none" xmlns="http://www.w3.org/2000/svg">
<path d="M19.0304 45.6417C23.402 43.9468 22.4441 39.2737 20.2338 36.3197C18.0481 33.293 15.0273 31.2107 11.982 29.201C9.82081 27.8451 7.83152 26.1502 6.23519 24.2131C5.54753 23.4141 4.14767 21.9371 5.57209 21.6465C7.02108 21.356 9.5261 22.7603 10.8032 23.293C13.038 24.2131 15.2484 25.2785 17.3113 26.5376L19.7918 22.4213C15.9606 19.9274 11.0488 17.724 6.48078 17.0702C3.87752 16.6828 1.12691 17.2155 0.242782 20C-0.543107 22.3971 0.709404 24.8184 2.13383 26.7071C5.49841 31.1381 10.7295 33.2688 14.6344 37.0945C15.4694 37.8935 16.4763 38.8378 16.9675 39.9516C17.4832 41.017 17.3604 41.0896 16.2062 41.0896C13.1608 41.0896 9.35418 38.741 6.87372 37.1913L4.39326 41.3076C8.15079 43.5836 14.4379 47.1429 19.0304 45.6417ZM41.6493 12.9056L27.7243 26.6344H22.1003V21.0896L36.0253 7.33657L41.6493 12.9056ZM49.9994 11.017C49.9748 11.7434 49.2135 12.494 48.4276 13.2446L42.2387 19.3705L40.1021 17.2639L46.4874 10.9928L45.0385 9.56418L43.393 11.1865L37.769 5.64165L43.0492 0.435836C43.6386 -0.145279 44.5964 -0.145279 45.1613 0.435836L48.6732 3.89831C49.2626 4.431 49.2626 5.39952 48.6732 5.98064C48.1575 6.48911 47.6663 6.97338 47.6663 7.45764C47.6172 7.9419 48.1083 8.47459 48.5995 8.88621C49.3117 9.61261 50.0239 10.2906 49.9994 11.017Z" fill="#D3DBE2"/>
</svg>
