<svg width="51" height="52" viewBox="0 0 51 52" fill="none" xmlns="http://www.w3.org/2000/svg">
<path d="M25.5 0C22.1513 0 18.8354 0.67251 15.7416 1.97913C12.6478 3.28575 9.83667 5.2009 7.46878 7.61522C2.6866 12.4912 0 19.1044 0 26C0 32.8956 2.6866 39.5088 7.46878 44.3848C9.83667 46.7991 12.6478 48.7142 15.7416 50.0209C18.8354 51.3275 22.1513 52 25.5 52C32.263 52 38.749 49.2607 43.5312 44.3848C48.3134 39.5088 51 32.8956 51 26C51 22.5856 50.3404 19.2047 49.0589 16.0502C47.7774 12.8958 45.8991 10.0295 43.5312 7.61522C41.1633 5.2009 38.3522 3.28575 35.2584 1.97913C32.1646 0.67251 28.8487 0 25.5 0ZM25.5 16.614C29.5035 19.24 34.221 20.8 39.321 20.8C41.31 20.8 43.2225 20.566 45.0585 20.124C45.594 21.97 45.9 23.946 45.9 26C45.9 37.466 36.7455 46.8 25.5 46.8C17.85 46.8 11.1945 42.484 7.65 36.114L12.1125 31.2V28.6C12.1125 27.738 12.4483 26.9114 13.0461 26.3019C13.6439 25.6924 14.4546 25.35 15.3 25.35C16.1454 25.35 16.9561 25.6924 17.5539 26.3019C18.1517 26.9114 18.4875 27.738 18.4875 28.6V31.2H25.5M35.7 25.35C34.8546 25.35 34.0439 25.6924 33.4461 26.3019C32.8483 26.9114 32.5125 27.738 32.5125 28.6C32.5125 29.462 32.8483 30.2886 33.4461 30.8981C34.0439 31.5076 34.8546 31.85 35.7 31.85C36.5454 31.85 37.3561 31.5076 37.9539 30.8981C38.5517 30.2886 38.8875 29.462 38.8875 28.6C38.8875 27.738 38.5517 26.9114 37.9539 26.3019C37.3561 25.6924 36.5454 25.35 35.7 25.35Z" fill="#D3DBE2"/>
</svg>
